<?xml version="1.0" encoding="UTF-8"?>
<svg id="Layer_1" xmlns="http://www.w3.org/2000/svg" version="1.1" viewBox="0 0 40 40">
  <!-- Generator: Adobe Illustrator 29.1.0, SVG Export Plug-In . SVG Version: 2.1.0 Build 142)  -->
  <defs>
    <style>
      .st0 {
        fill: #4b33f7;
      }
    </style>
  </defs>
  <path class="st0" d="M29.7,6.1c-1.1,0-2,.9-2,2h0s0,9.4,0,9.4h9.4c-.6-4.4-2.9-8.2-6.2-10.9-.3-.3-.8-.4-1.2-.4Z"/>
  <path class="st0" d="M11.1,17.5v-4.5c0-1.4,1.1-2.5,2.5-2.5s2.5,1.1,2.5,2.5v4.5h6.7V6.8h0c0-2.2-1.8-4-4-4s-.2,0-.4,0c-8,.7-14.4,6.9-15.5,14.7h8.2Z"/>
  <path class="st0" d="M18.7,37.3c2.2,0,4-1.8,4-4h0v-10.7h-6.7v4.5c0,1.4-1.1,2.5-2.5,2.5s-2.5-1.1-2.5-2.5v-4.5H2.9c1.1,7.9,7.5,14,15.5,14.7.1,0,.2,0,.4,0Z"/>
  <path class="st0" d="M27.8,22.5v9.4h0c0,1.1.9,2,2,2s.9-.2,1.3-.5h0c3.3-2.7,5.5-6.5,6.2-10.9h-9.4Z"/>
</svg>